<?xml version="1.0" standalone="no"?><!DOCTYPE svg PUBLIC "-//W3C//DTD SVG 1.1//EN" "http://www.w3.org/Graphics/SVG/1.1/DTD/svg11.dtd"><svg t="1779021678234" class="icon" viewBox="0 0 1024 1024" version="1.1" xmlns="http://www.w3.org/2000/svg" p-id="1271" xmlns:xlink="http://www.w3.org/1999/xlink" width="200" height="200"><path d="M539.733333 192.085333c192.469333 3.52 357.888 117.909333 435.050667 281.984a38.976 38.976 0 0 1 0 33.152l-7.594667 15.466667C885.802667 681.002667 720.832 789.333333 530.56 789.333333l-9.173333-0.085333c-186.389333-3.413333-347.392-110.762667-427.477334-266.538667l-7.594666-15.466666a38.976 38.976 0 0 1 0-33.152C164.693333 307.392 334.165333 192 530.56 192l9.173333 0.085333zM530.56 234.666667c-178.624 0-332.928 104.554667-404.864 256 71.936 151.424 226.218667 255.978667 404.842667 255.978666 178.645333 0 332.906667-104.554667 404.864-256C863.445333 339.221333 709.184 234.666667 530.56 234.666667z m2.773333 149.333333a106.666667 106.666667 0 1 1 0 213.333333 106.666667 106.666667 0 0 1 0-213.333333z m0 42.666667a64 64 0 1 0 0 128 64 64 0 0 0 0-128z" p-id="1272"></path></svg>